<?xml version="1.0" encoding="UTF-8" standalone="no"?>
<!-- Created with Inkscape (http://www.inkscape.org/) -->

<svg
   xmlns:dc="http://purl.org/dc/elements/1.1/"
   xmlns:cc="http://creativecommons.org/ns#"
   xmlns:rdf="http://www.w3.org/1999/02/22-rdf-syntax-ns#"
   xmlns:svg="http://www.w3.org/2000/svg"
   xmlns="http://www.w3.org/2000/svg"
   version="1.1"
   width="152.3625"
   height="41.674999"
   id="svg2"
   xml:space="preserve"><metadata
     id="metadata8"><rdf:RDF><cc:Work
         rdf:about=""><dc:format>image/svg+xml</dc:format><dc:type
           rdf:resource="http://purl.org/dc/dcmitype/StillImage" /><dc:title></dc:title></cc:Work></rdf:RDF></metadata><defs
     id="defs6"><clipPath
       id="clipPath18"><path
         d="m 0,0 1218.88,0 0,333 L 0,333 0,0 z"
         id="path20" /></clipPath><clipPath
       id="clipPath48"><path
         d="m 264.184,132.59 954.676,0 0,146.859 -954.676,0 0,-146.859 z"
         id="path50" /></clipPath><clipPath
       id="clipPath58"><path
         d="M 0,0 0,333 1219,333 1219,0 0,0 z"
         id="path60" /></clipPath></defs><g
     transform="matrix(1.25,0,0,-1.25,0,41.675)"
     id="g10"><g
       transform="scale(0.1,0.1)"
       id="g12"><g
         id="g14"><g
           clip-path="url(#clipPath18)"
           id="g16"><path
             d="m 0,134.871 c 47.0156,24.199 115.891,63.32 197.633,120.535 l 0,19.203 C 125.688,227.539 52.5234,189.742 0,164.742 l 0,-29.871"
             id="path22"
             style="fill:#00a48c;fill-opacity:1;fill-rule:nonzero;stroke:none" /><path
             d="m 0,192.207 c 52.3438,21.324 125.512,54.277 197.633,97.168 l 0,9.48 C 129.848,265.223 59.4297,244.184 0,231.059 l 0,-38.852"
             id="path24"
             style="fill:#00a48c;fill-opacity:1;fill-rule:nonzero;stroke:none" /><path
             d="m 197.633,134.773 0,96.582 C 152.637,193.422 108.082,160.586 70.6484,134.773 l 126.9846,0"
             id="path26"
             style="fill:#00a48c;fill-opacity:1;fill-rule:nonzero;stroke:none" /><path
             d="m 45.375,134.773 c 35.543,21.094 78.687,48.629 121.652,80.817 10.028,7.512 20.262,15.25 30.606,23.246 l 0,11.969 C 134.039,203.133 69.1328,163.387 18.4219,134.773 l 26.9531,0"
             id="path28"
             style="fill:#00a48c;fill-opacity:1;fill-rule:nonzero;stroke:none" /><path
             d="m 0,245.113 c 57.8086,10.164 128.523,28.449 197.633,61.297 l 0,10.766 C 127.992,285.918 58.2891,272.656 0,267.938 l 0,-22.825"
             id="path30"
             style="fill:#00a48c;fill-opacity:1;fill-rule:nonzero;stroke:none" /><path
             d="M 0,333.402 0,278.07 c 4.31641,0.266 8.71875,0.578 13.2148,0.922 48.0586,3.699 113.6402,12.188 184.4182,42.789 l 0,11.621 -197.633,0"
             id="path32"
             style="fill:#00a48c;fill-opacity:1;fill-rule:nonzero;stroke:none" /><path
             d="m 0,278.07 0,-10.132 c 58.2891,4.718 127.992,17.98 197.633,49.238 l 0,4.605 C 126.855,291.18 61.2734,282.691 13.2148,278.992 8.71875,278.648 4.31641,278.336 0,278.07"
             id="path34"
             style="fill:#ffffff;fill-opacity:1;fill-rule:nonzero;stroke:none" /><path
             d="m 0,231.059 c 59.4297,13.125 129.848,34.164 197.633,67.796 l 0,7.555 C 128.523,273.562 57.8086,255.277 0,245.113 l 0,-14.054"
             id="path36"
             style="fill:#ffffff;fill-opacity:1;fill-rule:nonzero;stroke:none" /><path
             d="m 0,164.742 c 52.5234,25 125.688,62.797 197.633,109.867 l 0,14.766 C 125.512,246.484 52.3438,213.531 0,192.207 l 0,-27.465"
             id="path38"
             style="fill:#ffffff;fill-opacity:1;fill-rule:nonzero;stroke:none" /><path
             d="m 45.375,134.773 25.2734,0 c 37.4336,25.813 81.9886,58.649 126.9846,96.582 l 0,7.481 C 187.289,230.84 177.055,223.102 167.027,215.59 124.062,183.402 80.918,155.867 45.375,134.773"
             id="path40"
             style="fill:#ffffff;fill-opacity:1;fill-rule:nonzero;stroke:none" /><path
             d="m 0,134.773 18.4219,0 c 50.7109,28.614 115.6171,68.36 179.2111,116.032 l 0,4.601 C 115.891,198.191 47.0156,159.07 0,134.871 l 0,-0.098"
             id="path42"
             style="fill:#ffffff;fill-opacity:1;fill-rule:nonzero;stroke:none" /></g></g><g
         id="g44"><g
           clip-path="url(#clipPath48)"
           id="g46"><path
             d="m 264.184,134.871 26.562,0 0,58.063 44.777,0 0,20.871 -44.777,0 0,32.625 47.051,0 0,20.871 -73.613,0 0,-132.43 z m 91.828,0 25.418,0 0,35.867 c 0,14.024 0,39.836 20.679,39.836 4.551,0 9.106,-0.746 11.387,-2.082 l 0,25.606 c -2.66,0.765 -5.312,0.765 -7.781,0.765 -15.172,0 -25.613,-15.383 -26.746,-24.468 l -0.379,0 0,22.183 -22.578,0 0,-97.707 z m 76.453,70.77 c 8.535,6.453 19.351,10.629 30.168,10.629 14.98,0 22.008,-5.313 22.008,-21.071 l -14.039,0 c -10.625,0 -23.145,-0.933 -32.825,-5.683 -9.675,-4.754 -16.687,-13.286 -16.687,-27.907 0,-18.574 16.879,-29.019 34.144,-29.019 11.567,0 24.286,6.07 30.161,16.883 l 0.386,0 c 0.196,-3.02 0.196,-9.465 1.133,-14.602 l 22.387,0 c -0.571,7.598 -0.946,14.426 -1.141,21.817 -0.191,7.214 -0.379,14.617 -0.379,24.484 l 0,12.523 c 0,28.84 -12.332,41.168 -42.113,41.168 -10.813,0 -24.09,-2.855 -33.965,-7.406 l 0.762,-21.816 z m 12.89,-42.5 c 0,14.992 16.891,16.894 28.278,16.894 l 11.008,0 c 0,-7.597 -1.141,-14.609 -5.321,-20.125 -3.984,-5.293 -10.047,-8.738 -17.828,-8.738 -9.105,0 -16.137,3.633 -16.137,11.969 m 173.43,69.437 -25.441,0 0,-47.816 c 0,-12.504 -3.981,-32.438 -22.387,-32.438 -16.312,0 -16.504,16.137 -16.504,28.09 l 0,52.164 -25.422,0 0,-61.66 c 0,-22.012 10.063,-38.328 33.203,-38.328 13.278,0 24.286,6.07 32.063,15.562 l 0.387,0 0,-13.281 24.101,0 0,97.707 z m 26.192,-97.707 25.41,0 0,47.82 c 0,12.508 3.984,32.442 22.383,32.442 16.308,0 16.503,-16.133 16.503,-28.082 l 0,-52.18 25.438,0 0,61.668 c 0,22.008 -10.066,38.324 -33.211,38.324 -13.281,0 -24.102,-4.371 -32.051,-15.562 l -0.41,0 0,13.277 -24.062,0 0,-97.707 z m 115.898,0 25.43,0 0,47.82 c 0,12.508 3.984,32.442 22.402,32.442 16.309,0 16.484,-16.133 16.484,-28.082 l 0,-52.18 25.411,0 0,61.668 c 0,22.008 -10.059,38.324 -33.184,38.324 -13.281,0 -24.289,-6.078 -30.715,-15.562 l -0.398,0 0,57.863 -25.43,0 0,-142.293 z m 105.859,48.184 c 0,-28.055 18.797,-50.465 51.055,-50.465 32.43,0 51.211,22.41 51.211,50.465 0,32.261 -22.18,51.808 -51.211,51.808 -28.848,0 -51.055,-19.547 -51.055,-51.808 m 26.563,3.054 c 0,14.606 7.969,29.024 24.492,29.024 16.699,0 24.649,-14.039 24.649,-29.024 0,-16.324 -5.098,-33.785 -24.649,-33.785 -19.375,0 -24.492,17.656 -24.492,33.785 m 101.133,-51.238 25.41,0 0,79.121 22.19,0 0,18.586 -22.19,0 0,12.149 c 0,7.582 2.66,14.988 11.21,14.988 5.49,0 8.73,-2.094 10.98,-3.422 l 2.11,21.066 c -4.94,1.133 -12.15,2.082 -18.6,2.082 -20.12,0 -31.11,-13.656 -31.11,-33.195 l 0,-13.668 -18.789,0 0,-18.586 18.789,0 0,-79.121 z m 81.19,58.438 c 1.15,13.093 8.34,22.961 22.58,22.961 14.24,0 19.94,-10.629 20.68,-22.961 l -43.26,0 z m 60.33,-32.262 c -9.49,-5.305 -20.1,-9.875 -32.45,-9.875 -15.71,0 -26.73,8.922 -27.88,24.687 l 67.53,0 c 0,34.149 -10.23,59.004 -46.48,59.004 -30.34,0 -45.33,-23.336 -45.33,-51.605 0,-32.086 18.77,-50.668 51.04,-50.668 13.67,0 24.26,2.652 33.57,7.793 l 0,20.664 z m 25.43,-26.176 25.41,0 0,35.867 c 0,14.024 0,39.836 20.67,39.836 4.57,0 9.13,-0.746 11.4,-2.082 l 0,25.606 c -2.67,0.765 -5.32,0.765 -7.79,0.765 -15.17,0 -25.61,-15.383 -26.74,-24.468 l -0.39,0 0,22.183 -22.56,0 0,-97.707"
             id="path52"
             style="fill:#231f20;fill-opacity:1;fill-rule:nonzero;stroke:none" /></g></g><g
         id="g54"><g
           clip-path="url(#clipPath58)"
           id="g56"><path
             d="m 1121,1.14062 12.8398,0 0,66.25 -12.8398,0 0,-66.25 z"
             id="path62"
             style="fill:#231f20;fill-opacity:1;fill-rule:nonzero;stroke:none" /><path
             d="m 1151.09,1.14062 12.8398,0 0,66.25 -12.8398,0 0,-66.25 z"
             id="path64"
             style="fill:#231f20;fill-opacity:1;fill-rule:nonzero;stroke:none" /><path
             d="m 1200.91,58.0938 c -1.11,0 -2.2,-0.1329 -3.31,-0.379 -1.16,-0.2539 -2.26,-0.7343 -3.3,-1.414 -0.98,-0.6485 -1.8,-1.586 -2.48,-2.8555 -0.67,-1.2109 -1,-2.7226 -1,-4.5586 0,-1.3984 0.43,-2.5586 1.27,-3.5039 0.86,-0.957 1.94,-1.8203 3.22,-2.5703 1.4,-0.7617 2.94,-1.457 4.59,-2.0898 1.59,-0.6954 3.27,-1.418 5.04,-2.1758 1.77,-0.7071 3.48,-1.5274 5.13,-2.4727 1.72,-1.0156 3.22,-2.2461 4.51,-3.7031 1.27,-1.3867 2.35,-3.0664 3.2,-5.0273 0.73,-2.0313 1.1,-4.461 1.1,-7.3165 -0.12,-7.1445 -2.48,-12.27339 -7.07,-15.37105 C 1207.23,1.55078 1201.58,0 1194.86,0 c -3.31,0 -6.1,0.253906 -8.36,0.761719 -2.33,0.437501 -5.02,1.042971 -8.07,1.804691 l 1.19,11.95309 c 4.53,-2.6562 9.36,-4.0234 14.5,-4.082 2.62,0 5.16,0.7031 7.61,2.0898 2.44,1.3907 3.69,3.5469 3.75,6.4571 0,1.582 -0.35,2.9492 -1.09,4.082 -0.86,1.1445 -1.93,2.0898 -3.21,2.8398 -2.82,1.5235 -6.03,2.9805 -9.63,4.375 -1.78,0.7657 -3.46,1.6446 -5.05,2.6563 -1.64,0.957 -3.18,2.0898 -4.59,3.418 -1.27,1.3867 -2.34,3.0703 -3.2,5.0312 -0.86,1.961 -1.29,4.2774 -1.29,6.9219 0.13,7.3437 2.48,12.5976 7.07,15.7617 4.4,2.9805 9.51,4.4766 15.31,4.4766 5.51,0 10.61,-0.8047 15.31,-2.3867 l -1.18,-10.918 c -4.1,1.8359 -8.45,2.7851 -13.02,2.8516"
             id="path66"
             style="fill:#231f20;fill-opacity:1;fill-rule:nonzero;stroke:none" /></g></g></g></g></svg>