<?xml version="1.0" encoding="iso-8859-1"?>
<!-- Generator: Adobe Illustrator 26.1.0, SVG Export Plug-In . SVG Version: 6.00 Build 0)  -->
<svg version="1.1" id="Logos" xmlns="http://www.w3.org/2000/svg" xmlns:xlink="http://www.w3.org/1999/xlink" x="0px" y="0px"
	 viewBox="0 0 1456.297 282.568" style="enable-background:new 0 0 1456.297 282.568;" xml:space="preserve">
<g>
	<g>
		<path style="fill:#04316A;" d="M625.367,55.059h-17.433v9.624h13.033v6.269h-13.033v16.498h-6.874V48.734h24.307V55.059z"/>
		<path style="fill:#04316A;" d="M646.042,59.348l-1.045,6.709c-0.989-0.55-2.199-0.88-3.629-0.88c-4.51,0-5.72,3.63-5.72,7.919
			v14.354h-6.544V59.458h6.435v3.52h0.109c1.485-2.64,4.125-4.234,7.314-4.234C643.897,58.743,645.052,58.908,646.042,59.348z"/>
		<path style="fill:#04316A;" d="M658.996,50.989c0,2.31-1.87,3.959-4.18,3.959c-2.255,0-4.125-1.649-4.125-3.959
			c0-2.255,1.87-3.96,4.125-3.96C657.125,47.029,658.996,48.734,658.996,50.989z M658.116,87.449h-6.545V59.458h6.545V87.449z"/>
		<path style="fill:#04316A;" d="M678.866,88.109c-8.304,0-13.858-5.885-13.858-14.738c0-8.688,5.335-14.628,13.144-14.628
			c7.534,0,12.429,5.609,12.429,14.243c0,0.935-0.056,1.925-0.11,2.694h-18.808c0.715,4.345,3.3,6.819,7.259,6.819
			c2.585,0,4.675-0.99,6.875-3.3l4.069,4.29C686.675,86.624,683.1,88.109,678.866,88.109z M671.552,70.896h12.703
			c-0.275-4.289-2.53-6.764-6.215-6.764C674.412,64.133,672.102,66.552,671.552,70.896z"/>
		<path style="fill:#04316A;" d="M696.27,73.371c0-9.019,4.564-14.628,11.383-14.628c3.52,0,6.27,1.484,8.14,3.794h0.109V48.185
			l6.544-1.649v40.914h-6.379v-3.3h-0.11c-2.034,2.475-4.949,3.96-8.413,3.96C700.889,88.109,696.27,82.445,696.27,73.371z
			 M702.758,73.371c0,5.719,2.365,8.964,6.489,8.964c2.53,0,4.62-1.21,6.654-3.685V68.422c-1.869-2.529-4.015-3.739-6.654-3.739
			C705.013,64.683,702.758,67.762,702.758,73.371z"/>
		<path style="fill:#04316A;" d="M747.907,59.348l-1.045,6.709c-0.99-0.55-2.2-0.88-3.63-0.88c-4.509,0-5.719,3.63-5.719,7.919
			v14.354h-6.544V59.458h6.434v3.52h0.11c1.484-2.64,4.124-4.234,7.314-4.234C745.762,58.743,746.917,58.908,747.907,59.348z"/>
		<path style="fill:#04316A;" d="M760.86,50.989c0,2.31-1.87,3.959-4.18,3.959c-2.255,0-4.125-1.649-4.125-3.959
			c0-2.255,1.87-3.96,4.125-3.96C758.99,47.029,760.86,48.734,760.86,50.989z M759.98,87.449h-6.545V59.458h6.545V87.449z"/>
		<path style="fill:#04316A;" d="M790.425,83.6c-2.805,3.08-5.994,4.51-10.009,4.51c-8.028,0-13.418-5.774-13.418-14.573
			c0-8.799,5.444-14.793,13.528-14.793c4.18,0,7.643,1.649,10.063,4.784l-4.51,4.289c-1.649-2.145-3.409-3.079-5.609-3.079
			c-4.124,0-6.929,3.409-6.929,8.688c0,5.225,2.805,8.744,6.874,8.744c2.2,0,3.96-0.99,5.774-3.08L790.425,83.6z"/>
		<path style="fill:#04316A;" d="M820.29,87.449h-6.544V71.446c0-4.124-1.266-6.819-5.17-6.819c-4.509,0-5.829,3.575-5.829,6.765
			v16.058h-6.544V48.185l6.544-1.649v16.277h0.11c1.595-2.475,4.509-4.069,8.193-4.069c6.489,0,9.239,4.839,9.239,11.328V87.449z"/>
		<path style="fill:#04316A;" d="M841.548,73.371H827.8v-6.214h13.748V73.371z"/>
		<path style="fill:#04316A;" d="M859.324,48.734h7.259l14.408,38.715h-7.534l-2.805-8.249h-15.617l-2.805,8.249h-7.315
			L859.324,48.734z M857.179,73.041h11.328l-5.609-16.442h-0.11L857.179,73.041z"/>
		<path style="fill:#04316A;" d="M893.276,87.449h-6.544V48.074l6.544-1.484V87.449z"/>
		<path style="fill:#04316A;" d="M914.229,88.109c-8.304,0-13.857-5.885-13.857-14.738c0-8.688,5.334-14.628,13.143-14.628
			c7.534,0,12.429,5.609,12.429,14.243c0,0.935-0.055,1.925-0.11,2.694h-18.807c0.715,4.345,3.299,6.819,7.259,6.819
			c2.584,0,4.674-0.99,6.874-3.3l4.069,4.29C922.039,86.624,918.463,88.109,914.229,88.109z M906.915,70.896h12.703
			c-0.275-4.289-2.529-6.764-6.214-6.764C909.775,64.133,907.465,66.552,906.915,70.896z"/>
		<path style="fill:#04316A;" d="M956.198,87.449h-7.48l-5.994-9.679h-0.109l-5.83,9.679h-7.368l9.568-14.518l-8.853-13.474h7.369
			l5.279,8.579h0.109l5.225-8.579h7.259l-8.799,13.363L956.198,87.449z"/>
		<path style="fill:#04316A;" d="M971.665,70.071c1.814,0,3.465,0.11,5.279,0.606v-0.99c0-3.574-2.09-5.444-6.159-5.444
			c-2.255,0-4.784,0.55-7.094,1.595l-1.43-5.499c2.584-0.99,5.994-1.595,9.184-1.595c7.864,0,11.934,3.685,11.934,10.833v17.873
			h-6.215v-2.97h-0.109c-2.42,2.475-4.949,3.63-8.194,3.63c-5.609,0-9.238-3.465-9.238-8.909
			C959.622,73.261,963.856,70.071,971.665,70.071z M970.565,83.215c2.364,0,4.564-1.155,6.379-3.354v-4.895
			c-1.54-0.385-3.135-0.55-4.565-0.55c-4.124,0-6.489,1.649-6.489,4.619C965.89,81.62,967.706,83.215,970.565,83.215z"/>
		<path style="fill:#04316A;" d="M1015.762,87.449h-6.545V71.446c0-4.069-1.209-6.819-5.169-6.819c-4.565,0-5.829,3.74-5.829,6.765
			v16.058h-6.544V59.458h6.489v3.354h0.109c1.65-2.475,4.62-4.069,8.249-4.069c6.379,0,9.239,4.674,9.239,11.328V87.449z"/>
		<path style="fill:#04316A;" d="M1022.684,73.371c0-9.019,4.564-14.628,11.384-14.628c3.52,0,6.27,1.484,8.139,3.794h0.11V48.185
			l6.544-1.649v40.914h-6.379v-3.3h-0.11c-2.034,2.475-4.949,3.96-8.414,3.96C1027.304,88.109,1022.684,82.445,1022.684,73.371z
			 M1029.173,73.371c0,5.719,2.365,8.964,6.489,8.964c2.529,0,4.619-1.21,6.654-3.685V68.422c-1.87-2.529-4.015-3.739-6.654-3.739
			C1031.428,64.683,1029.173,67.762,1029.173,73.371z"/>
		<path style="fill:#04316A;" d="M1069.822,88.109c-8.304,0-13.857-5.885-13.857-14.738c0-8.688,5.334-14.628,13.143-14.628
			c7.534,0,12.429,5.609,12.429,14.243c0,0.935-0.055,1.925-0.11,2.694h-18.808c0.716,4.345,3.3,6.819,7.26,6.819
			c2.584,0,4.674-0.99,6.874-3.3l4.069,4.29C1077.631,86.624,1074.057,88.109,1069.822,88.109z M1062.508,70.896h12.703
			c-0.275-4.289-2.529-6.764-6.214-6.764C1065.368,64.133,1063.058,66.552,1062.508,70.896z"/>
		<path style="fill:#04316A;" d="M1105.621,59.348l-1.045,6.709c-0.989-0.55-2.199-0.88-3.63-0.88c-4.509,0-5.719,3.63-5.719,7.919
			v14.354h-6.544V59.458h6.434v3.52h0.11c1.484-2.64,4.124-4.234,7.314-4.234C1103.476,58.743,1104.63,58.908,1105.621,59.348z"/>
		<path style="fill:#04316A;" d="M1123.44,73.371h-13.748v-6.214h13.748V73.371z"/>
		<path style="fill:#04316A;" d="M1162.036,72.106c0,9.349-4.784,16.003-15.178,16.003c-10.339,0-15.068-6.6-15.068-16.003V48.734
			h7.039v22.987c0,5.829,2.53,9.788,8.249,9.788c5.72,0,7.975-3.904,7.975-9.788V48.734h6.983V72.106z"/>
		<path style="fill:#04316A;" d="M1194.812,87.449h-6.544V71.446c0-4.069-1.21-6.819-5.17-6.819c-4.564,0-5.829,3.74-5.829,6.765
			v16.058h-6.544V59.458h6.489v3.354h0.109c1.65-2.475,4.62-4.069,8.249-4.069c6.379,0,9.239,4.674,9.239,11.328V87.449z"/>
		<path style="fill:#04316A;" d="M1210.489,50.989c0,2.31-1.87,3.959-4.18,3.959c-2.255,0-4.124-1.649-4.124-3.959
			c0-2.255,1.869-3.96,4.124-3.96C1208.619,47.029,1210.489,48.734,1210.489,50.989z M1209.609,87.449h-6.544V59.458h6.544V87.449z"
			/>
		<path style="fill:#04316A;" d="M1242.326,59.458l-10.174,27.991h-6.819l-10.173-27.991h7.204l6.434,20.348h0.11l6.434-20.348
			H1242.326z"/>
		<path style="fill:#04316A;" d="M1259.229,88.109c-8.304,0-13.857-5.885-13.857-14.738c0-8.688,5.334-14.628,13.143-14.628
			c7.534,0,12.429,5.609,12.429,14.243c0,0.935-0.055,1.925-0.11,2.694h-18.807c0.715,4.345,3.299,6.819,7.259,6.819
			c2.584,0,4.674-0.99,6.874-3.3l4.069,4.29C1267.039,86.624,1263.463,88.109,1259.229,88.109z M1251.916,70.896h12.703
			c-0.274-4.289-2.529-6.764-6.214-6.764C1254.775,64.133,1252.465,66.552,1251.916,70.896z"/>
		<path style="fill:#04316A;" d="M1295.028,59.348l-1.045,6.709c-0.99-0.55-2.199-0.88-3.629-0.88c-4.51,0-5.72,3.63-5.72,7.919
			v14.354h-6.544V59.458h6.434v3.52h0.11c1.484-2.64,4.124-4.234,7.314-4.234C1292.883,58.743,1294.038,58.908,1295.028,59.348z"/>
		<path style="fill:#04316A;" d="M1301.216,79.53c2.75,2.09,5.444,3.135,7.919,3.135c2.42,0,4.124-1.1,4.124-2.805
			c0-4.784-14.022-3.08-14.022-12.429c0-5.169,4.289-8.689,10.559-8.689c3.354,0,6.709,0.989,9.679,2.914l-3.08,5.114
			c-2.419-1.649-4.564-2.475-6.709-2.475c-2.42,0-4.015,1.045-4.015,2.585c0,4.564,13.969,2.97,13.969,12.373
			c0,5.279-4.345,8.854-10.779,8.854c-3.739,0-7.533-1.155-10.778-3.41L1301.216,79.53z"/>
		<path style="fill:#04316A;" d="M1334.061,50.989c0,2.31-1.87,3.959-4.18,3.959c-2.255,0-4.124-1.649-4.124-3.959
			c0-2.255,1.869-3.96,4.124-3.96C1332.191,47.029,1334.061,48.734,1334.061,50.989z M1333.181,87.449h-6.544V59.458h6.544V87.449z"
			/>
		<path style="fill:#04316A;" d="M1356.166,81.455v5.609c-1.43,0.66-3.575,1.045-5.5,1.045c-4.949,0-7.644-2.75-7.644-7.864V64.902
			h-4.289v-5.444h4.234v-7.644l6.544-1.431v9.074h6.654v5.444h-6.654v13.803c0,2.585,0.88,3.685,3.024,3.685
			C1353.746,82.39,1355.065,82.005,1356.166,81.455z"/>
		<path style="fill:#04316A;" d="M1373.319,70.071c1.814,0,3.465,0.11,5.279,0.606v-0.99c0-3.574-2.09-5.444-6.159-5.444
			c-2.255,0-4.784,0.55-7.094,1.595l-1.43-5.499c2.584-0.99,5.994-1.595,9.184-1.595c7.864,0,11.934,3.685,11.934,10.833v17.873
			h-6.215v-2.97h-0.109c-2.42,2.475-4.949,3.63-8.194,3.63c-5.609,0-9.238-3.465-9.238-8.909
			C1361.276,73.261,1365.51,70.071,1373.319,70.071z M1367.985,55.113c-2.09,0-3.904-1.76-3.904-3.794
			c0-2.035,1.814-3.85,3.904-3.85s3.904,1.814,3.904,3.85C1371.889,53.354,1370.075,55.113,1367.985,55.113z M1372.219,83.215
			c2.364,0,4.564-1.155,6.379-3.354v-4.895c-1.54-0.385-3.135-0.55-4.564-0.55c-4.124,0-6.489,1.649-6.489,4.619
			C1367.544,81.62,1369.36,83.215,1372.219,83.215z M1379.423,55.113c-2.09,0-3.904-1.76-3.904-3.794c0-2.035,1.814-3.85,3.904-3.85
			s3.904,1.814,3.904,3.85C1383.328,53.354,1381.513,55.113,1379.423,55.113z"/>
		<path style="fill:#04316A;" d="M1407.551,81.455v5.609c-1.43,0.66-3.575,1.045-5.5,1.045c-4.949,0-7.644-2.75-7.644-7.864V64.902
			h-4.289v-5.444h4.234v-7.644l6.544-1.431v9.074h6.654v5.444h-6.654v13.803c0,2.585,0.88,3.685,3.024,3.685
			C1405.131,82.39,1406.451,82.005,1407.551,81.455z"/>
		<path style="fill:#8C9FB1;" d="M627.017,115.669h-10.999v32.28h-6.874v-32.28H598.09v-6.435h28.927V115.669z"/>
		<path style="fill:#8C9FB1;" d="M641.087,148.609c-8.305,0-13.858-5.885-13.858-14.738c0-8.688,5.334-14.628,13.144-14.628
			c7.533,0,12.428,5.609,12.428,14.243c0,0.935-0.055,1.925-0.109,2.694h-18.808c0.715,4.345,3.299,6.819,7.259,6.819
			c2.585,0,4.675-0.99,6.874-3.3l4.069,4.29C648.896,147.124,645.322,148.609,641.087,148.609z M633.773,131.396h12.703
			c-0.274-4.289-2.529-6.764-6.214-6.764C636.632,124.633,634.323,127.052,633.773,131.396z"/>
		<path style="fill:#8C9FB1;" d="M681.813,144.1c-2.805,3.08-5.994,4.51-10.009,4.51c-8.028,0-13.418-5.774-13.418-14.573
			c0-8.799,5.444-14.793,13.528-14.793c4.18,0,7.643,1.649,10.063,4.784l-4.51,4.289c-1.649-2.145-3.409-3.079-5.609-3.079
			c-4.124,0-6.929,3.409-6.929,8.688c0,5.225,2.805,8.744,6.874,8.744c2.2,0,3.96-0.99,5.774-3.08L681.813,144.1z"/>
		<path style="fill:#8C9FB1;" d="M711.677,147.949h-6.544v-16.003c0-4.124-1.266-6.819-5.17-6.819c-4.509,0-5.829,3.575-5.829,6.765
			v16.058h-6.544v-39.265l6.544-1.649v16.277h0.11c1.595-2.475,4.509-4.069,8.193-4.069c6.489,0,9.239,4.839,9.239,11.328V147.949z"
			/>
		<path style="fill:#8C9FB1;" d="M744.087,147.949h-6.544v-16.003c0-4.069-1.21-6.819-5.169-6.819c-4.564,0-5.829,3.74-5.829,6.765
			v16.058h-6.544v-27.991h6.488v3.354h0.11c1.649-2.475,4.619-4.069,8.249-4.069c6.379,0,9.238,4.674,9.238,11.328V147.949z"/>
		<path style="fill:#8C9FB1;" d="M759.765,111.489c0,2.309-1.87,3.959-4.18,3.959c-2.255,0-4.125-1.65-4.125-3.959
			c0-2.255,1.87-3.96,4.125-3.96C757.895,107.529,759.765,109.234,759.765,111.489z M758.885,147.949h-6.545v-27.991h6.545V147.949z
			"/>
		<path style="fill:#8C9FB1;" d="M768.027,140.03c2.749,2.09,5.444,3.135,7.919,3.135c2.419,0,4.124-1.1,4.124-2.805
			c0-4.784-14.023-3.08-14.023-12.429c0-5.169,4.29-8.688,10.559-8.688c3.356,0,6.71,0.989,9.679,2.914l-3.079,5.114
			c-2.42-1.649-4.565-2.475-6.709-2.475c-2.42,0-4.015,1.045-4.015,2.585c0,4.564,13.968,2.97,13.968,12.373
			c0,5.279-4.344,8.855-10.778,8.855c-3.739,0-7.534-1.155-10.778-3.41L768.027,140.03z"/>
		<path style="fill:#8C9FB1;" d="M815.23,144.1c-2.805,3.08-5.995,4.51-10.009,4.51c-8.029,0-13.419-5.774-13.419-14.573
			c0-8.799,5.444-14.793,13.528-14.793c4.18,0,7.644,1.649,10.063,4.784l-4.509,4.289c-1.65-2.145-3.41-3.079-5.609-3.079
			c-4.124,0-6.929,3.409-6.929,8.688c0,5.225,2.805,8.744,6.874,8.744c2.199,0,3.959-0.99,5.773-3.08L815.23,144.1z"/>
		<path style="fill:#8C9FB1;" d="M845.093,147.949h-6.544v-16.003c0-4.124-1.265-6.819-5.169-6.819c-4.51,0-5.829,3.575-5.829,6.765
			v16.058h-6.545v-39.265l6.545-1.649v16.277h0.109c1.595-2.475,4.51-4.069,8.194-4.069c6.489,0,9.238,4.839,9.238,11.328V147.949z"
			/>
		<path style="fill:#8C9FB1;" d="M865.807,148.609c-8.304,0-13.857-5.885-13.857-14.738c0-8.688,5.334-14.628,13.143-14.628
			c7.534,0,12.429,5.609,12.429,14.243c0,0.935-0.055,1.925-0.11,2.694h-18.807c0.715,4.345,3.299,6.819,7.259,6.819
			c2.584,0,4.674-0.99,6.874-3.3l4.069,4.29C873.617,147.124,870.042,148.609,865.807,148.609z M858.494,131.396h12.703
			c-0.274-4.289-2.529-6.764-6.214-6.764C861.353,124.633,859.044,127.052,858.494,131.396z"/>
		<path style="fill:#8C9FB1;" d="M925.589,115.559h-17.433v9.624h13.033v6.269h-13.033v16.498h-6.874v-38.715h24.307V115.559z"/>
		<path style="fill:#8C9FB1;" d="M938.868,130.571c1.814,0,3.465,0.11,5.279,0.605v-0.99c0-3.574-2.09-5.444-6.159-5.444
			c-2.255,0-4.784,0.55-7.094,1.595l-1.43-5.499c2.584-0.99,5.994-1.595,9.184-1.595c7.864,0,11.934,3.685,11.934,10.833v17.873
			h-6.215v-2.97h-0.109c-2.42,2.475-4.949,3.63-8.194,3.63c-5.609,0-9.238-3.465-9.238-8.909
			C926.825,133.761,931.059,130.571,938.868,130.571z M937.768,143.715c2.364,0,4.564-1.155,6.379-3.355v-4.895
			c-1.54-0.385-3.135-0.55-4.565-0.55c-4.124,0-6.489,1.649-6.489,4.619C933.093,142.12,934.909,143.715,937.768,143.715z"/>
		<path style="fill:#8C9FB1;" d="M958.906,108.685l6.544-1.649v24.637h0.11l9.184-11.714h7.754l-9.238,10.998l10.229,16.993h-7.754
			l-7.039-12.099l-3.245,3.575v8.523h-6.544V108.685z"/>
		<path style="fill:#8C9FB1;" d="M994.886,136.786c0,3.849,1.925,5.884,5.554,5.884c3.575,0,5.444-1.98,5.444-5.939v-16.772h6.544
			v16.993c0,7.368-4.124,11.658-11.823,11.658c-7.644,0-12.263-4.29-12.263-11.604v-17.048h6.544V136.786z"/>
		<path style="fill:#8C9FB1;" d="M1027.346,147.949h-6.544v-39.375l6.544-1.484V147.949z"/>
		<path style="fill:#8C9FB1;" d="M1050.461,141.955v5.609c-1.43,0.66-3.575,1.045-5.5,1.045c-4.949,0-7.644-2.75-7.644-7.864
			v-15.343h-4.289v-5.444h4.234v-7.644l6.544-1.431v9.074h6.654v5.444h-6.654v13.803c0,2.585,0.88,3.685,3.024,3.685
			C1048.042,142.89,1049.361,142.505,1050.461,141.955z"/>
		<path style="fill:#8C9FB1;" d="M1067.615,130.571c1.815,0,3.465,0.11,5.279,0.605v-0.99c0-3.574-2.09-5.444-6.159-5.444
			c-2.255,0-4.784,0.55-7.094,1.595l-1.43-5.499c2.584-0.99,5.994-1.595,9.184-1.595c7.864,0,11.934,3.685,11.934,10.833v17.873
			h-6.215v-2.97h-0.109c-2.42,2.475-4.949,3.63-8.194,3.63c-5.609,0-9.238-3.465-9.238-8.909
			C1055.572,133.761,1059.806,130.571,1067.615,130.571z M1062.281,115.613c-2.09,0-3.904-1.76-3.904-3.794
			c0-2.035,1.814-3.85,3.904-3.85s3.904,1.814,3.904,3.85C1066.185,113.854,1064.371,115.613,1062.281,115.613z M1066.515,143.715
			c2.364,0,4.564-1.155,6.379-3.355v-4.895c-1.54-0.385-3.135-0.55-4.564-0.55c-4.124,0-6.489,1.649-6.489,4.619
			C1061.84,142.12,1063.656,143.715,1066.515,143.715z M1073.719,115.613c-2.09,0-3.904-1.76-3.904-3.794
			c0-2.035,1.814-3.85,3.904-3.85s3.904,1.814,3.904,3.85C1077.624,113.854,1075.809,115.613,1073.719,115.613z"/>
		<path style="fill:#8C9FB1;" d="M1101.847,141.955v5.609c-1.43,0.66-3.575,1.045-5.5,1.045c-4.949,0-7.644-2.75-7.644-7.864
			v-15.343h-4.289v-5.444h4.234v-7.644l6.544-1.431v9.074h6.654v5.444h-6.654v13.803c0,2.585,0.88,3.685,3.024,3.685
			C1099.427,142.89,1100.747,142.505,1101.847,141.955z"/>
	</g>
</g>
<path id="FAU_x5F_Logo_00000085231482016792189470000008549481074039026582_" style="fill:#04316A;" d="M48.719,66.643l9.744-9.744
	v176.95h-9.744V66.643z M77.95,58.462h116.925v-9.743H68.206v116.924h107.622v-9.743H77.95V58.462z M190.499,136.412H97.438V97.437
	h79.587l9.744-9.743H97.438v-9.744h97.437v-9.744H87.693v77.95h93.19L190.499,136.412z M68.206,233.849h9.744V185.13h9.744v40.538
	l9.744-9.743V185.13h78.391v-9.743H68.206V233.849z M542.598,48.718v112.054c0,26.074-11.633,48.475-38.78,65.656l-0.219-0.287
	c17.837-14.146,29.256-32.316,29.256-55.788V48.719h-9.744v121.471c0,34.979-28.356,61.224-63.335,61.224
	c-34.978,0-63.334-26.245-63.334-61.224V56.898l-9.744,9.744v103.71c0,40.359,32.718,70.642,73.078,70.642c0.934,0,9.744,0,9.744,0
	c39.743,0,82.822-29.35,82.822-80.08c0-0.048,0-112.196,0-112.196H542.598z M459.776,221.669c29.581,0,53.563-21.907,53.59-51.48h0
	V56.898l-9.744,9.744v94.128c0,18.835-15.269,31.667-34.103,31.667c-18.835,0-34.103-12.832-34.103-31.667l-0.001-112.052h-9.744
	V160.77c0,24.217,19.631,41.411,43.847,41.411c9.902,0,21.921-4.892,30.085-13.503l0.219,0.287
	c-7.655,14.195-21.804,22.96-40.048,22.96c-24.067,0-43.602-17.424-43.841-41.411h-0.005V48.719h-9.744v121.796h0.005
	C406.393,199.922,430.305,221.669,459.776,221.669z M243.257,175.387l-24.64,58.462l9.746-0.001l-0.001,0.001h0.001l12.319-29.23
	h82.554l12.308,29.23h9.744l-16.411-38.975h-84.089l4.106-9.744h85.624l20.513,48.719h9.744l-24.616-58.462H243.257z
	 M257.594,48.718l-71.61,169.858l6.203,8.42l75.151-178.278H257.594z M296.569,48.719l75.058,178.277l6.187-8.42L306.313,48.719
	H296.569z M237.6,165.643l-28.818,68.206h-9.744l73.171-173.562l40.258,95.612h9.744L277.082,48.719h9.744l49.231,116.924H237.6z
	 M281.978,106.629l-20.764,49.271h41.509L281.978,106.629z M241.702,155.899h9.768l25.638-60.836l-4.879-11.587L241.702,155.899z"/>
</svg>
