<?xml version="1.0" encoding="UTF-8" standalone="no"?>
<!-- Created with Inkscape (http://www.inkscape.org/) -->

<svg
   xmlns:dc="http://purl.org/dc/elements/1.1/"
   xmlns:cc="http://creativecommons.org/ns#"
   xmlns:rdf="http://www.w3.org/1999/02/22-rdf-syntax-ns#"
   xmlns:svg="http://www.w3.org/2000/svg"
   xmlns="http://www.w3.org/2000/svg"
   xmlns:sodipodi="http://sodipodi.sourceforge.net/DTD/sodipodi-0.dtd"
   xmlns:inkscape="http://www.inkscape.org/namespaces/inkscape"
   version="1.1"
   width="270.70874"
   height="73.33625"
   id="svg2"
   xml:space="preserve"
   inkscape:version="0.48.2 r9819"
   sodipodi:docname="techfak.svg"><sodipodi:namedview
     pagecolor="#ffffff"
     bordercolor="#666666"
     borderopacity="1"
     objecttolerance="10"
     gridtolerance="10"
     guidetolerance="10"
     inkscape:pageopacity="0"
     inkscape:pageshadow="2"
     inkscape:window-width="1686"
     inkscape:window-height="1270"
     id="namedview78"
     showgrid="false"
     fit-margin-top="0"
     fit-margin-left="0"
     fit-margin-right="0"
     fit-margin-bottom="0"
     inkscape:zoom="0.43274117"
     inkscape:cx="-24.803125"
     inkscape:cy="9.2031284"
     inkscape:window-x="0"
     inkscape:window-y="0"
     inkscape:window-maximized="0"
     inkscape:current-layer="svg2" /><metadata
     id="metadata8"><rdf:RDF><cc:Work
         rdf:about=""><dc:format>image/svg+xml</dc:format><dc:type
           rdf:resource="http://purl.org/dc/dcmitype/StillImage" /><dc:title /></cc:Work></rdf:RDF></metadata><defs
     id="defs6"><clipPath
       id="clipPath16"><path
         d="m 0.015015,159.307 595.259995,0 0,-159.292 -595.259995,0 0,159.292 z"
         id="path18"
         inkscape:connector-curvature="0" /></clipPath></defs><g
     transform="matrix(1.25,0,0,-1.25,-396.85,163.7)"
     id="g10"><g
       transform="translate(425.066,77.43)"
       id="g22"><path
         d="m 0,0 0,1.135 5.027,0 0,-1.135 -1.838,0 0,-5 -1.35,0 0,5 L 0,0 z m 10.676,1.135 0,-1.135 -3.24,0 0,-1.315 2.974,0 0,-1.048 -2.974,0 0,-1.504 3.309,0 0,-1.133 -4.658,0 0,6.135 4.589,0 z m 5.138,-1.638 c -0.08,0.129 -0.181,0.243 -0.301,0.339 -0.121,0.098 -0.257,0.174 -0.409,0.229 -0.151,0.054 -0.31,0.081 -0.477,0.081 -0.303,0 -0.561,-0.059 -0.773,-0.176 -0.212,-0.117 -0.384,-0.275 -0.516,-0.473 -0.132,-0.198 -0.227,-0.422 -0.288,-0.674 -0.06,-0.253 -0.09,-0.513 -0.09,-0.782 0,-0.258 0.03,-0.509 0.09,-0.752 0.061,-0.244 0.156,-0.463 0.288,-0.658 0.132,-0.195 0.304,-0.351 0.516,-0.468 0.212,-0.118 0.47,-0.177 0.773,-0.177 0.413,0 0.735,0.126 0.967,0.378 0.233,0.253 0.374,0.585 0.426,0.997 l 1.307,0 c -0.036,-0.383 -0.124,-0.73 -0.268,-1.039 -0.143,-0.31 -0.331,-0.573 -0.566,-0.791 -0.236,-0.218 -0.511,-0.384 -0.826,-0.498 -0.314,-0.115 -0.662,-0.172 -1.04,-0.172 -0.468,0 -0.892,0.082 -1.267,0.244 -0.376,0.164 -0.692,0.389 -0.949,0.676 -0.258,0.286 -0.456,0.622 -0.593,1.009 -0.139,0.387 -0.207,0.804 -0.207,1.251 0,0.458 0.068,0.883 0.207,1.276 0.137,0.393 0.335,0.734 0.593,1.027 0.257,0.292 0.573,0.521 0.949,0.688 0.375,0.165 0.799,0.248 1.267,0.248 0.339,0 0.659,-0.048 0.958,-0.145 0.302,-0.098 0.571,-0.239 0.808,-0.426 0.238,-0.186 0.435,-0.417 0.59,-0.692 0.154,-0.274 0.252,-0.59 0.292,-0.945 l -1.307,0 c -0.022,0.154 -0.074,0.296 -0.154,0.425 m 4.056,1.638 0,-2.356 2.484,0 0,2.356 1.349,0 0,-6.135 -1.349,0 0,2.646 -2.484,0 0,-2.646 -1.35,0 0,6.135 1.35,0 z m 6.721,0 2.562,-4.117 0.016,0 0,4.117 1.264,0 0,-6.135 -1.349,0 -2.553,4.106 -0.018,0 0,-4.106 -1.263,0 0,6.135 1.341,0 z M 33.372,-5 l -1.349,0 0,6.1352 1.349,0 0,-6.1352 z m 2.532,1.511 c 0.074,-0.143 0.174,-0.26 0.297,-0.348 0.123,-0.089 0.267,-0.155 0.433,-0.198 0.166,-0.043 0.338,-0.065 0.516,-0.065 0.12,0 0.249,0.011 0.387,0.031 0.136,0.019 0.266,0.058 0.386,0.116 0.121,0.057 0.221,0.136 0.301,0.236 0.08,0.1 0.12,0.228 0.12,0.382 0,0.166 -0.053,0.301 -0.158,0.404 -0.106,0.103 -0.245,0.189 -0.417,0.259 -0.172,0.068 -0.366,0.128 -0.585,0.179 -0.217,0.053 -0.437,0.11 -0.662,0.173 -0.229,0.057 -0.452,0.127 -0.67,0.21 -0.218,0.084 -0.412,0.19 -0.584,0.322 -0.172,0.133 -0.312,0.297 -0.417,0.495 -0.106,0.197 -0.159,0.437 -0.159,0.717 0,0.316 0.067,0.589 0.202,0.821 0.135,0.232 0.311,0.425 0.528,0.58 0.218,0.154 0.464,0.27 0.74,0.344 0.275,0.075 0.549,0.111 0.824,0.111 0.321,0 0.63,-0.035 0.925,-0.107 0.294,-0.071 0.557,-0.188 0.786,-0.348 0.229,-0.16 0.411,-0.365 0.546,-0.615 0.133,-0.249 0.202,-0.551 0.202,-0.906 l -1.307,0 c -0.012,0.183 -0.05,0.335 -0.116,0.456 -0.066,0.12 -0.153,0.214 -0.262,0.283 -0.109,0.069 -0.233,0.118 -0.374,0.146 -0.14,0.029 -0.293,0.043 -0.46,0.043 -0.108,0 -0.217,-0.011 -0.326,-0.034 -0.109,-0.023 -0.208,-0.064 -0.297,-0.12 -0.089,-0.058 -0.162,-0.129 -0.219,-0.215 -0.057,-0.086 -0.086,-0.195 -0.086,-0.327 0,-0.12 0.023,-0.218 0.069,-0.292 0.046,-0.074 0.136,-0.144 0.27,-0.206 0.135,-0.063 0.322,-0.126 0.559,-0.189 0.237,-0.064 0.55,-0.143 0.933,-0.241 0.114,-0.023 0.273,-0.065 0.477,-0.125 0.203,-0.06 0.404,-0.155 0.606,-0.288 0.201,-0.132 0.374,-0.308 0.519,-0.529 0.148,-0.22 0.22,-0.502 0.22,-0.846 0,-0.281 -0.055,-0.541 -0.164,-0.781 -0.109,-0.242 -0.27,-0.449 -0.485,-0.624 -0.214,-0.174 -0.481,-0.311 -0.799,-0.408 -0.318,-0.097 -0.686,-0.146 -1.105,-0.146 -0.338,0 -0.666,0.041 -0.983,0.125 -0.319,0.083 -0.6,0.213 -0.843,0.39 -0.243,0.178 -0.437,0.405 -0.58,0.68 -0.144,0.274 -0.212,0.601 -0.206,0.979 l 1.305,0 c 0,-0.206 0.038,-0.381 0.113,-0.524 m 8.836,2.986 c -0.08,0.129 -0.18,0.243 -0.301,0.339 -0.12,0.098 -0.256,0.174 -0.407,0.229 -0.153,0.054 -0.311,0.081 -0.477,0.081 -0.305,0 -0.562,-0.059 -0.774,-0.176 -0.211,-0.117 -0.383,-0.275 -0.516,-0.473 -0.132,-0.198 -0.228,-0.422 -0.288,-0.674 -0.06,-0.253 -0.09,-0.513 -0.09,-0.782 0,-0.258 0.03,-0.509 0.09,-0.752 0.06,-0.244 0.156,-0.463 0.288,-0.658 0.133,-0.195 0.305,-0.351 0.516,-0.468 0.212,-0.118 0.469,-0.177 0.774,-0.177 0.412,0 0.734,0.126 0.966,0.378 0.231,0.253 0.374,0.585 0.426,0.997 l 1.306,0 c -0.035,-0.383 -0.123,-0.73 -0.266,-1.039 -0.144,-0.31 -0.333,-0.573 -0.568,-0.791 -0.235,-0.218 -0.509,-0.384 -0.825,-0.498 -0.314,-0.115 -0.661,-0.172 -1.039,-0.172 -0.471,0 -0.893,0.082 -1.268,0.244 -0.375,0.164 -0.692,0.389 -0.95,0.676 -0.257,0.286 -0.456,0.622 -0.593,1.009 -0.137,0.387 -0.206,0.804 -0.206,1.251 0,0.458 0.069,0.883 0.206,1.276 0.137,0.393 0.336,0.734 0.593,1.027 0.258,0.292 0.575,0.521 0.95,0.688 0.375,0.165 0.797,0.248 1.268,0.248 0.338,0 0.657,-0.048 0.957,-0.145 0.301,-0.098 0.57,-0.239 0.809,-0.426 0.238,-0.186 0.433,-0.417 0.589,-0.692 0.154,-0.274 0.252,-0.59 0.292,-0.945 l -1.307,0 c -0.023,0.154 -0.074,0.296 -0.155,0.425 m 4.099,1.638 0,-2.356 2.484,0 0,2.356 1.349,0 0,-6.135 -1.349,0 0,2.646 -2.484,0 0,-2.646 -1.349,0 0,6.135 1.349,0 z m 9.928,0 0,-1.135 -3.24,0 0,-1.315 2.972,0 0,-1.048 -2.972,0 0,-1.504 3.308,0 0,-1.133 -4.658,0 0,6.135 4.59,0 z m 8.061,0 0,-1.135 -2.965,0 0,-1.418 2.569,0 0,-1.048 -2.569,0 0,-2.534 -1.35,0 0,6.135 4.315,0 z m 3.771,-3.765 -0.772,2.252 -0.018,0 -0.799,-2.252 1.589,0 z M 70.523,1.135 72.817,-5 l -1.401,0 -0.463,1.364 -2.296,0 -0.481,-1.364 -1.358,0 2.321,6.135 1.384,0 z m 4.575,0 0,-2.544 2.397,2.544 1.685,0 -2.397,-2.424 2.63,-3.711 -1.695,0 -1.847,2.758 -0.773,-0.783 0,-1.975 -1.35,0 0,6.135 1.35,0 z m 9.655,-5.669 c -0.464,-0.403 -1.105,-0.605 -1.924,-0.605 -0.832,0 -1.474,0.201 -1.93,0.601 -0.455,0.401 -0.683,1.02 -0.683,1.857 l 0,3.816 1.349,0 0,-3.816 c 0,-0.167 0.015,-0.33 0.043,-0.49 0.029,-0.161 0.089,-0.303 0.18,-0.426 0.092,-0.123 0.219,-0.223 0.383,-0.3 0.163,-0.078 0.382,-0.117 0.658,-0.117 0.481,0 0.814,0.108 0.997,0.323 0.183,0.214 0.275,0.551 0.275,1.01 l 0,3.816 1.35,0 0,-3.816 c 0,-0.831 -0.233,-1.448 -0.698,-1.853 m 3.518,5.669 0,-5.002 2.991,0 0,-1.133 -4.34,0 0,6.135 1.349,0 z M 91.04,0 l 0,1.135 5.028,0 0,-1.135 -1.839,0 0,-5 -1.35,0 0,5 -1.839,0 z m 7.563,1.822 -1.16,0 0,1.0064 1.16,0 0,-1.0064 z m 1.77,0 -1.161,0 0,1.0064 1.161,0 0,-1.0064 z m -0.678,-4.452 -0.774,2.252 -0.017,0 -0.8,-2.252 1.591,0 z m -0.078,3.765 2.295,-6.135 -1.402,0 -0.464,1.364 -2.294,0 -0.481,-1.364 -1.358,0 2.32,6.135 1.384,0 z M 101.712,0 l 0,1.135 5.029,0 0,-1.135 -1.84,0 0,-5 -1.349,0 0,5 -1.84,0"
         id="path24"
         style="fill:#96a0a5;fill-opacity:1;fill-rule:nonzero;stroke:none"
         inkscape:connector-curvature="0" /></g><g
       transform="translate(430.137,94.82)"
       id="g26"><path
         d="m 0,0 0,-1.135 -3.241,0 0,-1.314 2.974,0 0,-1.049 -2.974,0 0,-1.504 3.309,0 0,-1.134 -4.658,0 L -4.59,0 0,0 z m 4.148,-2.776 c 0.311,0 0.542,0.068 0.697,0.206 0.156,0.138 0.233,0.361 0.233,0.671 0,0.297 -0.077,0.514 -0.233,0.649 -0.155,0.135 -0.386,0.202 -0.697,0.202 l -1.476,0 0,-1.728 1.476,0 z M 4.631,0 c 0.274,0 0.523,-0.044 0.743,-0.134 0.22,-0.088 0.409,-0.21 0.567,-0.365 0.157,-0.154 0.278,-0.334 0.36,-0.537 0.084,-0.203 0.125,-0.423 0.125,-0.657 0,-0.361 -0.076,-0.673 -0.227,-0.936 C 6.048,-2.893 5.8,-3.094 5.456,-3.231 l 0,-0.018 C 5.622,-3.294 5.759,-3.365 5.868,-3.46 5.976,-3.554 6.066,-3.665 6.134,-3.794 6.203,-3.923 6.254,-4.065 6.285,-4.22 6.316,-4.374 6.338,-4.529 6.349,-4.684 6.355,-4.781 6.361,-4.896 6.367,-5.027 6.373,-5.16 6.383,-5.294 6.397,-5.431 6.411,-5.569 6.434,-5.699 6.466,-5.823 6.497,-5.946 6.545,-6.05 6.607,-6.136 l -1.349,0 C 5.183,-5.941 5.137,-5.71 5.121,-5.44 5.103,-5.171 5.078,-4.913 5.044,-4.667 4.997,-4.346 4.9,-4.11 4.751,-3.961 4.602,-3.813 4.358,-3.739 4.019,-3.739 l -1.347,0 0,-2.397 -1.35,0 0,6.136 3.309,0 z m 4.365,0 0,-5.002 2.99,0 0,-1.134 -4.34,0 0,6.136 1.35,0 z m 7.331,-3.765 -0.775,2.253 -0.016,0 -0.8,-2.253 1.591,0 z M 16.249,0 l 2.295,-6.136 -1.402,0 -0.464,1.366 -2.294,0 -0.482,-1.366 -1.357,0 2.32,6.136 1.384,0 z m 4.4,0 2.562,-4.117 0.016,0 0,4.117 1.264,0 0,-6.136 -1.349,0 -2.553,4.107 -0.018,0 0,-4.107 -1.263,0 0,6.136 1.341,0 z m 8.869,-6.089 c -0.292,-0.123 -0.587,-0.184 -0.884,-0.184 -0.47,0 -0.893,0.081 -1.268,0.245 -0.375,0.162 -0.692,0.387 -0.949,0.674 -0.259,0.286 -0.456,0.624 -0.594,1.01 -0.137,0.386 -0.206,0.803 -0.206,1.25 0,0.458 0.069,0.884 0.206,1.277 0.138,0.392 0.335,0.734 0.594,1.026 0.257,0.292 0.574,0.521 0.949,0.688 0.375,0.166 0.798,0.249 1.268,0.249 0.314,0 0.62,-0.047 0.915,-0.142 0.294,-0.094 0.561,-0.233 0.799,-0.417 0.238,-0.183 0.434,-0.409 0.588,-0.678 0.156,-0.269 0.249,-0.579 0.284,-0.929 l -1.29,0 c -0.08,0.344 -0.234,0.601 -0.463,0.774 -0.229,0.172 -0.507,0.257 -0.833,0.257 -0.305,0 -0.562,-0.058 -0.775,-0.176 -0.211,-0.117 -0.383,-0.275 -0.516,-0.472 -0.13,-0.199 -0.227,-0.423 -0.287,-0.675 -0.06,-0.252 -0.09,-0.513 -0.09,-0.782 0,-0.258 0.03,-0.509 0.09,-0.752 0.06,-0.243 0.157,-0.463 0.287,-0.657 0.133,-0.195 0.305,-0.351 0.516,-0.469 0.213,-0.117 0.47,-0.176 0.775,-0.176 0.446,0 0.792,0.114 1.036,0.339 0.242,0.227 0.384,0.555 0.424,0.985 l -1.358,0 0,1.006 2.578,0 0,-3.318 -0.858,0 -0.138,0.696 c -0.241,-0.31 -0.507,-0.526 -0.8,-0.649 m 7.71,6.089 0,-1.135 -3.241,0 0,-1.314 2.974,0 0,-1.049 -2.974,0 0,-1.504 3.31,0 0,-1.134 -4.659,0 0,6.136 4.59,0 z m 2.747,0 2.562,-4.117 0.017,0 0,4.117 1.264,0 0,-6.136 -1.35,0 -2.552,4.107 -0.017,0 0,-4.107 -1.265,0 0,6.136 1.341,0 z m 7.96,-4.315 -2.587,0 0,1.0489 2.587,0 0,-1.0489 z M 50.827,0 l 2.561,-4.117 0.017,0 0,4.117 1.264,0 0,-6.136 -1.35,0 -2.552,4.107 -0.017,0 0,-4.107 -1.263,0 0,6.136 1.34,0 z m 7.63,0.688 -1.16,0 0,1.0049 1.16,0 0,-1.0049 z m 1.77,0 -1.16,0 0,1.0049 1.16,0 0,-1.0049 z m 0.456,-6.356 c -0.464,-0.404 -1.106,-0.605 -1.924,-0.605 -0.832,0 -1.475,0.199 -1.93,0.601 -0.456,0.401 -0.684,1.02 -0.684,1.856 l 0,3.816 1.349,0 0,-3.816 c 0,-0.166 0.015,-0.329 0.044,-0.49 0.028,-0.16 0.089,-0.302 0.18,-0.424 0.092,-0.124 0.219,-0.225 0.382,-0.302 0.164,-0.077 0.383,-0.116 0.659,-0.116 0.481,0 0.813,0.107 0.996,0.323 0.183,0.215 0.275,0.551 0.275,1.009 l 0,3.816 1.349,0 0,-3.816 c 0,-0.83 -0.232,-1.448 -0.696,-1.852 m 4.91,2.892 c 0.309,0 0.541,0.068 0.696,0.206 0.155,0.138 0.232,0.361 0.232,0.671 0,0.297 -0.077,0.514 -0.232,0.649 -0.155,0.135 -0.387,0.202 -0.696,0.202 l -1.478,0 0,-1.728 1.478,0 z M 66.074,0 c 0.275,0 0.523,-0.044 0.744,-0.134 0.221,-0.088 0.409,-0.21 0.567,-0.365 0.159,-0.154 0.278,-0.334 0.361,-0.537 0.084,-0.203 0.124,-0.423 0.124,-0.657 0,-0.361 -0.075,-0.673 -0.228,-0.936 -0.151,-0.264 -0.398,-0.465 -0.742,-0.602 l 0,-0.018 c 0.166,-0.045 0.303,-0.116 0.412,-0.211 0.11,-0.094 0.197,-0.205 0.267,-0.334 0.068,-0.129 0.119,-0.271 0.149,-0.426 0.031,-0.154 0.054,-0.309 0.066,-0.464 0.006,-0.097 0.01,-0.212 0.016,-0.343 0.006,-0.133 0.017,-0.267 0.031,-0.404 0.014,-0.138 0.037,-0.268 0.069,-0.392 0.031,-0.123 0.078,-0.227 0.141,-0.313 l -1.349,0 c -0.075,0.195 -0.12,0.426 -0.138,0.696 -0.017,0.269 -0.043,0.527 -0.077,0.773 -0.046,0.321 -0.144,0.557 -0.292,0.706 -0.149,0.148 -0.393,0.222 -0.73,0.222 l -1.35,0 0,-2.397 -1.35,0 0,6.136 3.309,0 z m 4.529,0 2.562,-4.117 0.016,0 0,4.117 1.263,0 0,-6.136 -1.349,0 -2.553,4.107 -0.017,0 0,-4.107 -1.263,0 0,6.136 1.341,0 z m 8.105,-2.483 c 0.241,0 0.439,0.056 0.593,0.171 0.155,0.115 0.233,0.301 0.233,0.559 0,0.143 -0.026,0.26 -0.078,0.352 -0.051,0.092 -0.12,0.163 -0.206,0.215 -0.086,0.051 -0.185,0.088 -0.297,0.107 -0.111,0.02 -0.228,0.031 -0.348,0.031 l -1.263,0 0,-1.435 1.366,0 z M 78.88,0 c 0.293,0 0.558,-0.026 0.799,-0.077 0.241,-0.052 0.448,-0.136 0.62,-0.254 0.171,-0.117 0.304,-0.273 0.399,-0.468 0.094,-0.196 0.142,-0.436 0.142,-0.722 0,-0.31 -0.071,-0.567 -0.211,-0.774 -0.14,-0.206 -0.348,-0.375 -0.623,-0.506 0.378,-0.109 0.661,-0.301 0.846,-0.572 0.187,-0.272 0.28,-0.6 0.28,-0.985 0,-0.309 -0.06,-0.576 -0.181,-0.803 -0.12,-0.226 -0.282,-0.411 -0.485,-0.554 -0.204,-0.144 -0.435,-0.249 -0.697,-0.318 -0.26,-0.069 -0.528,-0.103 -0.803,-0.103 l -2.973,0 0,6.136 2.887,0 z m -0.094,-5.088 c 0.131,0 0.258,0.013 0.378,0.039 0.12,0.026 0.225,0.069 0.318,0.129 0.091,0.06 0.164,0.142 0.219,0.245 0.054,0.103 0.082,0.235 0.082,0.395 0,0.316 -0.09,0.54 -0.267,0.675 -0.178,0.134 -0.412,0.202 -0.705,0.202 l -1.469,0 0,-1.685 1.444,0 z m 8.06,5.088 0,-1.135 -3.24,0 0,-1.314 2.974,0 0,-1.049 -2.974,0 0,-1.504 3.309,0 0,-1.134 -4.658,0 0,6.136 4.589,0 z m 4.236,-2.776 c 0.308,0 0.541,0.068 0.695,0.206 0.155,0.138 0.232,0.361 0.232,0.671 0,0.297 -0.077,0.514 -0.232,0.649 -0.154,0.135 -0.387,0.202 -0.695,0.202 l -1.479,0 0,-1.728 1.479,0 z M 91.563,0 c 0.275,0 0.523,-0.044 0.743,-0.134 0.22,-0.088 0.41,-0.21 0.567,-0.365 0.158,-0.154 0.278,-0.334 0.361,-0.537 0.083,-0.203 0.125,-0.423 0.125,-0.657 0,-0.361 -0.076,-0.673 -0.228,-0.936 -0.152,-0.264 -0.4,-0.465 -0.744,-0.602 l 0,-0.018 c 0.166,-0.045 0.304,-0.116 0.414,-0.211 0.107,-0.094 0.197,-0.205 0.266,-0.334 0.068,-0.129 0.118,-0.271 0.15,-0.426 0.032,-0.154 0.052,-0.309 0.065,-0.464 0.005,-0.097 0.011,-0.212 0.018,-0.343 0.004,-0.133 0.014,-0.267 0.029,-0.404 0.014,-0.138 0.037,-0.268 0.068,-0.392 0.032,-0.123 0.079,-0.227 0.142,-0.313 l -1.349,0 c -0.074,0.195 -0.121,0.426 -0.138,0.696 -0.016,0.269 -0.043,0.527 -0.077,0.773 -0.046,0.321 -0.143,0.557 -0.293,0.706 -0.148,0.148 -0.391,0.222 -0.729,0.222 l -1.35,0 0,-2.397 -1.349,0 0,6.136 3.309,0 z m 6.705,-6.089 c -0.291,-0.123 -0.587,-0.184 -0.884,-0.184 -0.47,0 -0.893,0.081 -1.268,0.245 -0.376,0.162 -0.692,0.387 -0.95,0.674 -0.258,0.286 -0.455,0.624 -0.593,1.01 -0.138,0.386 -0.206,0.803 -0.206,1.25 0,0.458 0.068,0.884 0.206,1.277 0.138,0.392 0.335,0.734 0.593,1.026 0.258,0.292 0.574,0.521 0.95,0.688 0.375,0.166 0.798,0.249 1.268,0.249 0.314,0 0.62,-0.047 0.915,-0.142 0.295,-0.094 0.561,-0.233 0.799,-0.417 0.238,-0.183 0.434,-0.409 0.589,-0.678 0.154,-0.269 0.249,-0.579 0.283,-0.929 l -1.289,0 c -0.08,0.344 -0.235,0.601 -0.464,0.774 -0.229,0.172 -0.507,0.257 -0.833,0.257 -0.304,0 -0.562,-0.058 -0.774,-0.176 -0.212,-0.117 -0.385,-0.275 -0.516,-0.472 -0.132,-0.199 -0.227,-0.423 -0.287,-0.675 -0.061,-0.252 -0.09,-0.513 -0.09,-0.782 0,-0.258 0.029,-0.509 0.09,-0.752 0.06,-0.243 0.155,-0.463 0.287,-0.657 0.131,-0.195 0.304,-0.351 0.516,-0.469 0.212,-0.117 0.47,-0.176 0.774,-0.176 0.447,0 0.792,0.114 1.035,0.339 0.244,0.227 0.385,0.555 0.425,0.985 l -1.357,0 0,1.006 2.578,0 0,-3.318 -0.859,0 -0.138,0.696 c -0.24,-0.31 -0.507,-0.526 -0.8,-0.649"
         id="path28"
         style="fill:#0b3b6a;fill-opacity:1;fill-rule:nonzero;stroke:none"
         inkscape:connector-curvature="0" /></g><g
       transform="translate(430.104,98.433)"
       id="g30"><path
         d="m 0,0 c -0.465,-0.403 -1.107,-0.606 -1.926,-0.606 -0.831,0 -1.475,0.201 -1.93,0.603 -0.455,0.4 -0.684,1.019 -0.684,1.856 l 0,3.815 1.35,0 0,-3.815 c 0,-0.167 0.015,-0.33 0.043,-0.491 0.028,-0.16 0.089,-0.301 0.181,-0.425 0.091,-0.123 0.218,-0.223 0.382,-0.3 0.164,-0.078 0.382,-0.117 0.658,-0.117 0.48,0 0.813,0.107 0.996,0.323 0.183,0.215 0.275,0.552 0.275,1.01 l 0,3.815 1.349,0 0,-3.815 C 0.694,1.021 0.462,0.404 0,0 m 3.556,5.668 2.563,-4.117 0.016,0 0,4.117 1.264,0 0,-6.136 -1.35,0 -2.552,4.108 -0.018,0 0,-4.108 -1.263,0 0,6.136 1.34,0 z m 6.695,-6.136 -1.349,0 0,6.1362 1.349,0 0,-6.1362 z m 2.959,0 -1.985,6.136 1.384,0 1.367,-4.314 0.018,0 1.382,4.314 1.393,0 -2.037,-6.136 -1.522,0 z m 9.145,6.136 0,-1.134 -3.24,0 0,-1.315 2.973,0 0,-1.049 -2.973,0 0,-1.504 3.309,0 0,-1.134 -4.659,0 0,6.136 4.59,0 z m 4.149,-2.775 c 0.31,0 0.541,0.068 0.697,0.206 0.154,0.137 0.231,0.36 0.231,0.67 0,0.298 -0.077,0.514 -0.231,0.649 -0.156,0.134 -0.387,0.202 -0.697,0.202 l -1.477,0 0,-1.727 1.477,0 z m 0.482,2.775 c 0.274,0 0.522,-0.044 0.743,-0.133 0.221,-0.089 0.41,-0.21 0.567,-0.365 0.158,-0.155 0.278,-0.334 0.361,-0.537 0.084,-0.204 0.125,-0.423 0.125,-0.658 0,-0.361 -0.076,-0.673 -0.228,-0.936 C 28.402,2.775 28.155,2.575 27.81,2.437 l 0,-0.018 c 0.166,-0.045 0.305,-0.115 0.413,-0.21 0.109,-0.094 0.197,-0.206 0.267,-0.335 0.068,-0.129 0.118,-0.271 0.15,-0.426 0.031,-0.155 0.053,-0.309 0.065,-0.464 0.005,-0.097 0.011,-0.212 0.017,-0.343 0.005,-0.132 0.015,-0.267 0.029,-0.405 0.015,-0.137 0.039,-0.267 0.07,-0.39 0.031,-0.123 0.078,-0.228 0.141,-0.314 l -1.348,0 c -0.075,0.195 -0.121,0.427 -0.139,0.696 -0.016,0.269 -0.043,0.527 -0.076,0.773 -0.047,0.321 -0.144,0.556 -0.293,0.706 -0.149,0.148 -0.393,0.222 -0.731,0.222 l -1.348,0 0,-2.397 -1.35,0 0,6.136 3.309,0 z m 4.177,-4.623 c 0.074,-0.144 0.172,-0.26 0.296,-0.348 0.123,-0.09 0.268,-0.155 0.434,-0.199 0.166,-0.042 0.338,-0.063 0.516,-0.063 0.121,0 0.25,0.009 0.386,0.029 0.138,0.02 0.267,0.059 0.387,0.116 0.12,0.058 0.22,0.136 0.301,0.236 0.08,0.101 0.12,0.229 0.12,0.383 0,0.166 -0.053,0.301 -0.159,0.404 C 33.338,1.707 33.2,1.792 33.027,1.86 32.855,1.929 32.661,1.99 32.443,2.041 32.225,2.093 32.004,2.15 31.782,2.213 31.552,2.271 31.329,2.34 31.111,2.424 30.893,2.507 30.698,2.614 30.526,2.746 30.354,2.878 30.215,3.043 30.11,3.24 c -0.107,0.198 -0.159,0.438 -0.159,0.718 0,0.315 0.067,0.588 0.202,0.821 0.134,0.232 0.31,0.425 0.528,0.58 0.218,0.155 0.464,0.269 0.739,0.344 0.276,0.074 0.55,0.111 0.826,0.111 0.321,0 0.628,-0.035 0.923,-0.107 0.295,-0.072 0.557,-0.187 0.787,-0.348 0.229,-0.161 0.411,-0.365 0.545,-0.615 0.135,-0.248 0.203,-0.551 0.203,-0.907 l -1.307,0 C 33.385,4.021 33.346,4.173 33.282,4.294 33.215,4.414 33.127,4.508 33.019,4.577 32.91,4.646 32.786,4.694 32.646,4.723 32.505,4.751 32.352,4.766 32.185,4.766 32.077,4.766 31.967,4.754 31.859,4.731 31.75,4.708 31.651,4.668 31.562,4.611 31.473,4.554 31.401,4.482 31.343,4.396 31.286,4.311 31.257,4.202 31.257,4.07 c 0,-0.12 0.023,-0.217 0.069,-0.292 0.046,-0.074 0.135,-0.143 0.271,-0.207 0.134,-0.063 0.32,-0.126 0.559,-0.189 0.237,-0.063 0.548,-0.143 0.931,-0.24 C 33.203,3.119 33.361,3.077 33.565,3.017 33.768,2.957 33.97,2.861 34.17,2.729 34.371,2.598 34.544,2.421 34.691,2.2 34.836,1.979 34.909,1.698 34.909,1.354 34.909,1.073 34.855,0.813 34.747,0.572 34.638,0.331 34.475,0.123 34.26,-0.051 34.045,-0.226 33.78,-0.362 33.461,-0.46 c -0.318,-0.097 -0.686,-0.146 -1.103,-0.146 -0.339,0 -0.667,0.042 -0.985,0.125 -0.318,0.083 -0.599,0.213 -0.841,0.391 -0.245,0.177 -0.438,0.404 -0.581,0.678 -0.143,0.276 -0.212,0.603 -0.206,0.981 l 1.306,0 c 0,-0.207 0.037,-0.381 0.112,-0.524 m 6.273,-1.513 -1.35,0 0,6.1362 1.35,0 0,-6.1362 z m 1.083,5.002 0,1.134 5.028,0 0,-1.134 -1.839,0 0,-5.002 -1.35,0 0,5.002 -1.839,0 z m 7.623,1.822 -1.16,0 0,1.0059 1.16,0 0,-1.0059 z m 1.771,0 -1.162,0 0,1.0059 1.162,0 0,-1.0059 z m -0.679,-4.452 -0.774,2.252 -0.016,0 -0.8,-2.252 1.59,0 z m -0.078,3.764 2.296,-6.136 -1.403,0 -0.463,1.366 -2.294,0 -0.482,-1.366 -1.357,0 2.32,6.136 1.383,0 z m 2.166,-1.134 0,1.134 5.028,0 0,-1.134 -1.839,0 0,-5.002 -1.349,0 0,5.002 -1.84,0"
         id="path32"
         style="fill:#0b3b6a;fill-opacity:1;fill-rule:nonzero;stroke:none"
         inkscape:connector-curvature="0" /></g><g
       transform="translate(429.861,113.498)"
       id="g34"><path
         d="m 0,0 0,-1.134 -2.965,0 0,-1.418 2.571,0 0,-1.049 -2.571,0 0,-2.535 -1.349,0 0,6.136 L 0,0 z m 3.925,-2.776 c 0.31,0 0.542,0.069 0.695,0.206 0.156,0.138 0.233,0.361 0.233,0.671 0,0.297 -0.077,0.514 -0.233,0.648 -0.153,0.135 -0.385,0.202 -0.695,0.202 l -1.478,0 0,-1.727 1.478,0 z M 4.407,0 C 4.682,0 4.929,-0.044 5.149,-0.133 5.37,-0.222 5.559,-0.344 5.717,-0.499 5.874,-0.653 5.994,-0.833 6.077,-1.036 6.16,-1.239 6.202,-1.459 6.202,-1.693 6.202,-2.054 6.126,-2.366 5.975,-2.63 5.823,-2.894 5.576,-3.094 5.231,-3.231 l 0,-0.018 C 5.398,-3.294 5.535,-3.365 5.644,-3.459 5.752,-3.554 5.841,-3.666 5.91,-3.794 5.979,-3.923 6.03,-4.065 6.061,-4.22 6.092,-4.375 6.114,-4.529 6.124,-4.684 6.13,-4.781 6.136,-4.896 6.142,-5.028 6.148,-5.16 6.158,-5.294 6.172,-5.432 6.186,-5.569 6.209,-5.699 6.242,-5.823 6.273,-5.946 6.32,-6.05 6.382,-6.136 l -1.348,0 C 4.959,-5.941 4.913,-5.71 4.897,-5.44 4.878,-5.171 4.853,-4.914 4.819,-4.667 4.773,-4.346 4.676,-4.111 4.527,-3.962 4.377,-3.814 4.134,-3.738 3.796,-3.738 l -1.349,0 0,-2.398 -1.35,0 0,6.136 3.31,0 z m 4.633,-6.136 -1.348,0 0,6.1362 1.348,0 0,-6.1362 z M 15.177,0 l 0,-1.134 -3.239,0 0,-1.315 2.973,0 0,-1.049 -2.973,0 0,-1.504 3.307,0 0,-1.134 -4.657,0 0,6.136 4.589,0 z m 3.875,-5.002 c 0.194,0 0.384,0.031 0.567,0.094 0.184,0.063 0.346,0.168 0.49,0.315 0.142,0.145 0.258,0.336 0.343,0.571 0.086,0.235 0.129,0.521 0.129,0.859 0,0.31 -0.03,0.589 -0.089,0.838 -0.061,0.249 -0.161,0.463 -0.297,0.64 -0.138,0.178 -0.32,0.314 -0.545,0.409 -0.227,0.094 -0.507,0.142 -0.839,0.142 l -0.963,0 0,-3.868 1.204,0 z M 19.146,0 c 0.395,0 0.764,-0.063 1.104,-0.189 0.341,-0.126 0.637,-0.315 0.885,-0.567 0.25,-0.252 0.444,-0.567 0.585,-0.946 0.141,-0.378 0.21,-0.822 0.21,-1.332 0,-0.447 -0.057,-0.86 -0.172,-1.237 C 21.644,-4.65 21.471,-4.976 21.239,-5.251 21.007,-5.526 20.717,-5.742 20.37,-5.9 20.024,-6.058 19.616,-6.136 19.146,-6.136 l -2.647,0 0,6.136 2.647,0 z m 6.707,-2.776 c 0.309,0 0.542,0.069 0.697,0.206 0.154,0.138 0.232,0.361 0.232,0.671 0,0.297 -0.078,0.514 -0.232,0.648 -0.155,0.135 -0.388,0.202 -0.697,0.202 l -1.478,0 0,-1.727 1.478,0 z M 26.334,0 c 0.275,0 0.524,-0.044 0.744,-0.133 0.221,-0.089 0.41,-0.211 0.567,-0.366 0.157,-0.154 0.278,-0.334 0.361,-0.537 0.083,-0.203 0.125,-0.423 0.125,-0.657 0,-0.361 -0.077,-0.673 -0.227,-0.937 -0.153,-0.264 -0.401,-0.464 -0.744,-0.601 l 0,-0.018 c 0.166,-0.045 0.303,-0.116 0.412,-0.21 0.109,-0.095 0.198,-0.207 0.266,-0.335 0.069,-0.129 0.119,-0.271 0.151,-0.426 0.032,-0.155 0.052,-0.309 0.064,-0.464 0.006,-0.097 0.012,-0.212 0.018,-0.344 0.006,-0.132 0.015,-0.266 0.03,-0.404 0.014,-0.137 0.037,-0.267 0.068,-0.391 0.032,-0.123 0.079,-0.227 0.142,-0.313 l -1.349,0 c -0.074,0.195 -0.121,0.426 -0.137,0.696 -0.017,0.269 -0.043,0.526 -0.078,0.773 -0.046,0.321 -0.143,0.556 -0.293,0.705 -0.148,0.148 -0.392,0.224 -0.73,0.224 l -1.349,0 0,-2.398 -1.349,0 0,6.136 3.308,0 z m 4.506,-6.136 -1.349,0 0,6.1362 1.349,0 0,-6.1362 z m 5.388,4.499 c -0.081,0.129 -0.182,0.241 -0.302,0.339 -0.12,0.097 -0.256,0.173 -0.408,0.228 -0.151,0.054 -0.311,0.082 -0.477,0.082 -0.303,0 -0.561,-0.059 -0.773,-0.177 -0.212,-0.117 -0.385,-0.274 -0.516,-0.472 -0.132,-0.198 -0.227,-0.423 -0.288,-0.675 -0.06,-0.252 -0.091,-0.513 -0.091,-0.782 0,-0.258 0.031,-0.509 0.091,-0.752 0.061,-0.244 0.156,-0.463 0.288,-0.658 0.131,-0.194 0.304,-0.351 0.516,-0.468 0.212,-0.117 0.47,-0.175 0.773,-0.175 0.412,0 0.735,0.125 0.967,0.376 0.233,0.253 0.374,0.585 0.426,0.998 l 1.306,0 c -0.034,-0.384 -0.123,-0.731 -0.266,-1.04 -0.144,-0.309 -0.333,-0.573 -0.568,-0.791 -0.235,-0.218 -0.51,-0.383 -0.825,-0.498 -0.315,-0.115 -0.661,-0.172 -1.04,-0.172 -0.469,0 -0.892,0.082 -1.267,0.245 -0.376,0.164 -0.693,0.388 -0.95,0.674 -0.258,0.287 -0.456,0.624 -0.593,1.011 -0.138,0.386 -0.206,0.803 -0.206,1.25 0,0.458 0.068,0.884 0.206,1.276 0.137,0.393 0.335,0.735 0.593,1.027 0.257,0.292 0.574,0.521 0.95,0.688 0.375,0.166 0.798,0.249 1.267,0.249 0.338,0 0.658,-0.049 0.958,-0.146 0.301,-0.097 0.571,-0.239 0.808,-0.425 0.238,-0.187 0.435,-0.417 0.589,-0.692 0.155,-0.276 0.252,-0.591 0.293,-0.945 l -1.307,0 c -0.023,0.154 -0.074,0.295 -0.154,0.425 M 40.326,0 l 0,-2.355 2.483,0 0,2.355 1.351,0 0,-6.136 -1.351,0 0,2.647 -2.483,0 0,-2.647 -1.35,0 0,6.136 1.35,0 z m 7.951,-4.314 -2.587,0 0,1.0488 2.587,0 0,-1.0488 z m 4.428,0.549 -0.772,2.252 -0.018,0 -0.798,-2.252 1.588,0 z M 52.628,0 l 2.295,-6.136 -1.401,0 -0.463,1.365 -2.296,0 -0.48,-1.365 -1.359,0 2.321,6.136 1.383,0 z m 4.575,0 0,-5.002 2.992,0 0,-1.134 -4.34,0 0,6.136 1.348,0 z m 8.661,0 0,-1.134 -3.241,0 0,-1.315 2.973,0 0,-1.049 -2.973,0 0,-1.504 3.309,0 0,-1.134 -4.658,0 0,6.136 4.59,0 z m 1.039,0 1.564,0 1.203,-1.96 1.246,1.96 1.479,0 -1.969,-2.931 2.141,-3.205 -1.608,0 -1.341,2.122 -1.366,-2.122 -1.512,0 2.14,3.214 L 66.903,0 z m 9.944,-3.765 -0.774,2.252 -0.017,0 -0.8,-2.252 1.591,0 z M 76.77,0 l 2.294,-6.136 -1.401,0 -0.464,1.365 -2.294,0 -0.482,-1.365 -1.357,0 L 75.385,0 76.77,0 z m 4.437,0 2.561,-4.117 0.017,0 0,4.117 1.263,0 0,-6.136 -1.349,0 -2.553,4.108 -0.017,0 0,-4.108 -1.263,0 0,6.136 1.341,0 z m 7.837,-5.002 c 0.196,0 0.384,0.031 0.568,0.094 0.183,0.063 0.346,0.168 0.49,0.315 0.142,0.145 0.257,0.336 0.343,0.571 0.087,0.235 0.129,0.521 0.129,0.859 0,0.31 -0.03,0.589 -0.089,0.838 -0.061,0.249 -0.159,0.463 -0.298,0.64 -0.137,0.178 -0.319,0.314 -0.545,0.409 -0.227,0.094 -0.506,0.142 -0.838,0.142 l -0.963,0 0,-3.868 1.203,0 z M 89.139,0 c 0.396,0 0.764,-0.063 1.104,-0.189 0.341,-0.126 0.636,-0.315 0.886,-0.567 0.249,-0.252 0.444,-0.567 0.584,-0.946 0.141,-0.378 0.21,-0.822 0.21,-1.332 0,-0.447 -0.056,-0.86 -0.172,-1.237 C 91.637,-4.65 91.464,-4.976 91.232,-5.251 91,-5.526 90.71,-5.742 90.365,-5.9 90.017,-6.058 89.609,-6.136 89.139,-6.136 l -2.647,0 0,6.136 2.647,0 z m 8.482,0 0,-1.134 -3.24,0 0,-1.315 2.974,0 0,-1.049 -2.974,0 0,-1.504 3.31,0 0,-1.134 -4.658,0 0,6.136 4.588,0 z m 4.107,-2.776 c 0.309,0 0.541,0.069 0.696,0.206 0.155,0.138 0.233,0.361 0.233,0.671 0,0.297 -0.078,0.514 -0.233,0.648 -0.155,0.135 -0.387,0.202 -0.696,0.202 l -1.478,0 0,-1.727 1.478,0 z M 102.209,0 c 0.276,0 0.524,-0.044 0.743,-0.133 0.221,-0.089 0.411,-0.211 0.568,-0.366 0.158,-0.154 0.278,-0.334 0.36,-0.537 0.084,-0.203 0.125,-0.423 0.125,-0.657 0,-0.361 -0.076,-0.673 -0.227,-0.937 -0.152,-0.264 -0.4,-0.464 -0.744,-0.601 l 0,-0.018 c 0.167,-0.045 0.304,-0.116 0.413,-0.21 0.108,-0.095 0.198,-0.207 0.267,-0.335 0.068,-0.129 0.117,-0.271 0.15,-0.426 0.031,-0.155 0.052,-0.309 0.064,-0.464 0.006,-0.097 0.012,-0.212 0.018,-0.344 0.006,-0.132 0.014,-0.266 0.03,-0.404 0.014,-0.137 0.037,-0.267 0.068,-0.391 0.033,-0.123 0.079,-0.227 0.142,-0.313 l -1.349,0 c -0.075,0.195 -0.121,0.426 -0.137,0.696 -0.018,0.269 -0.043,0.526 -0.078,0.773 -0.045,0.321 -0.144,0.556 -0.293,0.705 -0.148,0.148 -0.392,0.224 -0.729,0.224 l -1.35,0 0,-2.398 -1.349,0 0,6.136 3.308,0"
         id="path36"
         style="fill:#0b3b6a;fill-opacity:1;fill-rule:nonzero;stroke:none"
         inkscape:connector-curvature="0" /></g><g
       transform="translate(412.103,91.593)"
       id="g38"><path
         d="m 0,0 -25.589,0 c 1.573,-1.284 3.392,-2.246 5.319,-2.915 l 14.938,0 C -3.401,-2.246 -1.576,-1.284 0,0"
         id="path40"
         style="fill:#0b3b6a;fill-opacity:1;fill-rule:nonzero;stroke:none"
         inkscape:connector-curvature="0" /></g><g
       transform="translate(341.659,93.054)"
       id="g42"><path
         d="m 0,0 11.091,0 0.017,0.053 -0.031,0 0.918,2.862 -10.891,0 L 0,0"
         id="path44"
         style="fill:#0b3b6a;fill-opacity:1;fill-rule:nonzero;stroke:none"
         inkscape:connector-curvature="0" /></g><g
       transform="translate(341.151,91.593)"
       id="g46"><path
         d="m 0,0 -1.105,-2.915 11.3,0 L 11.158,0 0,0"
         id="path48"
         style="fill:#0b3b6a;fill-opacity:1;fill-rule:nonzero;stroke:none"
         inkscape:connector-curvature="0" /></g><path
       d="m 317.48,88.678 10.589,0 0,2.915 -10.589,0 0,-2.915 z"
       id="path50"
       style="fill:#0b3b6a;fill-opacity:1;fill-rule:nonzero;stroke:none"
       inkscape:connector-curvature="0" /><path
       d="m 317.48,93.054 10.589,0 0,2.9145 -10.589,0 0,-2.9145 z"
       id="path52"
       style="fill:#0b3b6a;fill-opacity:1;fill-rule:nonzero;stroke:none"
       inkscape:connector-curvature="0" /><path
       d="m 317.48,97.426 10.589,0 0,2.9145 -10.589,0 0,-2.9145 z"
       id="path54"
       style="fill:#0b3b6a;fill-opacity:1;fill-rule:nonzero;stroke:none"
       inkscape:connector-curvature="0" /><path
       d="m 317.48,101.798 10.589,0 0,2.9141 -10.589,0 0,-2.9141 z"
       id="path56"
       style="fill:#0b3b6a;fill-opacity:1;fill-rule:nonzero;stroke:none"
       inkscape:connector-curvature="0" /><path
       d="m 317.48,114.922 10.589,0 0,2.9146 -10.589,0 0,-2.9146 z"
       id="path58"
       style="fill:#0b3b6a;fill-opacity:1;fill-rule:nonzero;stroke:none"
       inkscape:connector-curvature="0" /><path
       d="m 317.48,119.301 10.589,0 0,2.9151 -10.589,0 0,-2.9151 z"
       id="path60"
       style="fill:#0b3b6a;fill-opacity:1;fill-rule:nonzero;stroke:none"
       inkscape:connector-curvature="0" /><path
       d="m 317.48,128.045 32.364,0 0,2.915 -32.364,0 0,-2.915 z"
       id="path62"
       style="fill:#0b3b6a;fill-opacity:1;fill-rule:nonzero;stroke:none"
       inkscape:connector-curvature="0" /><path
       d="m 317.48,123.674 32.364,0 0,2.9145 -32.364,0 0,-2.9145 z"
       id="path64"
       style="fill:#0b3b6a;fill-opacity:1;fill-rule:nonzero;stroke:none"
       inkscape:connector-curvature="0" /><g
       transform="translate(360.377,117.836)"
       id="g66"><path
         d="m 0,0 -9.55,0 -1.105,-2.915 9.757,0 L 0,0"
         id="path68"
         style="fill:#0b3b6a;fill-opacity:1;fill-rule:nonzero;stroke:none"
         inkscape:connector-curvature="0" /></g><g
       transform="translate(354.56,128.045)"
       id="g70"><path
         d="m 0,0 13.181,0 -1.13,2.915 -10.947,0 L 0,0"
         id="path72"
         style="fill:#0b3b6a;fill-opacity:1;fill-rule:nonzero;stroke:none"
         inkscape:connector-curvature="0" /></g><g
       transform="translate(352.947,123.674)"
       id="g74"><path
         d="M 0,0 16.444,0 15.313,2.915 1.105,2.915 0,0"
         id="path76"
         style="fill:#0b3b6a;fill-opacity:1;fill-rule:nonzero;stroke:none"
         inkscape:connector-curvature="0" /></g><g
       transform="translate(361.726,119.294)"
       id="g78"><path
         d="m 0,0 9.315,0 -1.131,2.914 -17.471,0 -1.104,-2.914 9.453,0 0.41,1.335 0.117,0 L 0,0"
         id="path80"
         style="fill:#0b3b6a;fill-opacity:1;fill-rule:nonzero;stroke:none"
         inkscape:connector-curvature="0" /></g><g
       transform="translate(363.033,114.921)"
       id="g82"><path
         d="m 0,0 9.657,0 -1.13,2.914 -9.421,0 L 0,0"
         id="path84"
         style="fill:#0b3b6a;fill-opacity:1;fill-rule:nonzero;stroke:none"
         inkscape:connector-curvature="0" /></g><g
       transform="translate(364.34,110.555)"
       id="g86"><path
         d="m 0,0 9.999,0 -1.13,2.914 -9.764,0 L 0,0"
         id="path88"
         style="fill:#96a0a5;fill-opacity:1;fill-rule:nonzero;stroke:none"
         inkscape:connector-curvature="0" /></g><g
       transform="translate(365.647,106.183)"
       id="g90"><path
         d="m 0,0 10.341,0 -1.13,2.914 -10.106,0 L 0,0"
         id="path92"
         style="fill:#96a0a5;fill-opacity:1;fill-rule:nonzero;stroke:none"
         inkscape:connector-curvature="0" /></g><g
       transform="translate(344.884,101.798)"
       id="g94"><path
         d="m 0,0 32.754,0 -1.13,2.914 -30.519,0 L 0,0"
         id="path96"
         style="fill:#0b3b6a;fill-opacity:1;fill-rule:nonzero;stroke:none"
         inkscape:connector-curvature="0" /></g><g
       transform="translate(343.271,97.425)"
       id="g98"><path
         d="m 0,0 36.016,0 -1.13,2.914 -33.781,0 L 0,0"
         id="path100"
         style="fill:#0b3b6a;fill-opacity:1;fill-rule:nonzero;stroke:none"
         inkscape:connector-curvature="0" /></g><g
       transform="translate(369.854,93.054)"
       id="g102"><path
         d="m 0,0 11.084,0 -1.13,2.915 -10.929,0 L 0,0"
         id="path104"
         style="fill:#0b3b6a;fill-opacity:1;fill-rule:nonzero;stroke:none"
         inkscape:connector-curvature="0" /></g><g
       transform="translate(370.266,91.593)"
       id="g106"><path
         d="m 0,0 0.961,-2.915 11.358,0 L 11.19,0 0,0"
         id="path108"
         style="fill:#0b3b6a;fill-opacity:1;fill-rule:nonzero;stroke:none"
         inkscape:connector-curvature="0" /></g><path
       d="m 381.375,128.045 10.588,0 0,2.915 -10.588,0 0,-2.915 z"
       id="path110"
       style="fill:#0b3b6a;fill-opacity:1;fill-rule:nonzero;stroke:none"
       inkscape:connector-curvature="0" /><path
       d="m 381.375,123.674 10.588,0 0,2.9145 -10.588,0 0,-2.9145 z"
       id="path112"
       style="fill:#0b3b6a;fill-opacity:1;fill-rule:nonzero;stroke:none"
       inkscape:connector-curvature="0" /><path
       d="m 381.375,119.294 10.588,0 0,2.9146 -10.588,0 0,-2.9146 z"
       id="path114"
       style="fill:#0b3b6a;fill-opacity:1;fill-rule:nonzero;stroke:none"
       inkscape:connector-curvature="0" /><path
       d="m 381.375,114.921 10.588,0 0,2.9145 -10.588,0 0,-2.9145 z"
       id="path116"
       style="fill:#0b3b6a;fill-opacity:1;fill-rule:nonzero;stroke:none"
       inkscape:connector-curvature="0" /><path
       d="m 381.375,110.555 10.588,0 0,2.9145 -10.588,0 0,-2.9145 z"
       id="path118"
       style="fill:#96a0a5;fill-opacity:1;fill-rule:nonzero;stroke:none"
       inkscape:connector-curvature="0" /><path
       d="m 381.375,106.183 10.588,0 0,2.9145 -10.588,0 0,-2.9145 z"
       id="path120"
       style="fill:#96a0a5;fill-opacity:1;fill-rule:nonzero;stroke:none"
       inkscape:connector-curvature="0" /><g
       transform="translate(381.459,101.798)"
       id="g122"><path
         d="m 0,0 10.703,0 c -0.134,0.754 -0.199,1.561 -0.199,2.409 l 0,0.505 -10.588,0 0,-1.374 C -0.084,1.005 -0.043,0.502 0,0"
         id="path124"
         style="fill:#0b3b6a;fill-opacity:1;fill-rule:nonzero;stroke:none"
         inkscape:connector-curvature="0" /></g><g
       transform="translate(382.406,97.425)"
       id="g126"><path
         d="m 0,0 12.076,0 c -0.939,0.734 -1.578,1.73 -1.978,2.914 l -10.871,0 C -0.599,1.875 -0.348,0.896 0,0"
         id="path128"
         style="fill:#0b3b6a;fill-opacity:1;fill-rule:nonzero;stroke:none"
         inkscape:connector-curvature="0" /></g><g
       transform="translate(415.615,95.968)"
       id="g130"><path
         d="m 0,0 -32.609,0 c 0.568,-1.089 1.269,-2.056 2.067,-2.915 l 28.474,0 C -1.27,-2.056 -0.567,-1.089 0,0"
         id="path132"
         style="fill:#0b3b6a;fill-opacity:1;fill-rule:nonzero;stroke:none"
         inkscape:connector-curvature="0" /></g><g
       transform="translate(416.99,100.34)"
       id="g134"><path
         d="m 0,0 -10.873,0 c -0.4,-1.185 -1.045,-2.181 -1.99,-2.914 l 12.089,0 C -0.425,-2.018 -0.175,-1.039 0,0"
         id="path136"
         style="fill:#0b3b6a;fill-opacity:1;fill-rule:nonzero;stroke:none"
         inkscape:connector-curvature="0" /></g><path
       d="m 406.659,128.045 10.589,0 0,2.915 -10.589,0 0,-2.915 z"
       id="path138"
       style="fill:#0b3b6a;fill-opacity:1;fill-rule:nonzero;stroke:none"
       inkscape:connector-curvature="0" /><path
       d="m 406.659,123.674 10.589,0 0,2.9145 -10.589,0 0,-2.9145 z"
       id="path140"
       style="fill:#0b3b6a;fill-opacity:1;fill-rule:nonzero;stroke:none"
       inkscape:connector-curvature="0" /><path
       d="m 406.659,119.294 10.589,0 0,2.9146 -10.589,0 0,-2.9146 z"
       id="path142"
       style="fill:#0b3b6a;fill-opacity:1;fill-rule:nonzero;stroke:none"
       inkscape:connector-curvature="0" /><path
       d="m 406.659,114.921 10.589,0 0,2.9145 -10.589,0 0,-2.9145 z"
       id="path144"
       style="fill:#0b3b6a;fill-opacity:1;fill-rule:nonzero;stroke:none"
       inkscape:connector-curvature="0" /><path
       d="m 406.659,110.555 10.589,0 0,2.9145 -10.589,0 0,-2.9145 z"
       id="path146"
       style="fill:#96a0a5;fill-opacity:1;fill-rule:nonzero;stroke:none"
       inkscape:connector-curvature="0" /><path
       d="m 406.659,106.183 10.589,0 0,2.9145 -10.589,0 0,-2.9145 z"
       id="path148"
       style="fill:#96a0a5;fill-opacity:1;fill-rule:nonzero;stroke:none"
       inkscape:connector-curvature="0" /><g
       transform="translate(417.248,103.338)"
       id="g150"><path
         d="m 0,0 0,1.374 -10.589,0 0,-0.505 c 0,-0.849 -0.064,-1.655 -0.199,-2.409 l 10.703,0 C -0.043,-1.038 0,-0.535 0,0"
         id="path152"
         style="fill:#0b3b6a;fill-opacity:1;fill-rule:nonzero;stroke:none"
         inkscape:connector-curvature="0" /></g><g
       transform="translate(317.48,109.098)"
       id="g154"><path
         d="m 0,0 0,-2.914 39.387,0 L 40.283,0 0,0"
         id="path156"
         style="fill:#96a0a5;fill-opacity:1;fill-rule:nonzero;stroke:none"
         inkscape:connector-curvature="0" /></g><g
       transform="translate(317.48,113.469)"
       id="g158"><path
         d="m 0,0 0,-2.914 40.694,0 L 41.589,0 0,0"
         id="path160"
         style="fill:#96a0a5;fill-opacity:1;fill-rule:nonzero;stroke:none"
         inkscape:connector-curvature="0" /></g></g></svg>